<svg xmlns="http://www.w3.org/2000/svg" version="1.1" xmlns:xlink="http://www.w3.org/1999/xlink" xmlns:svgjs="http://svgjs.com/svgjs" width="732.000000pt" height="706.000000pt"><svg version="1.0" xmlns="http://www.w3.org/2000/svg" width="732.000000pt" height="706.000000pt" viewBox="0 0 732.000000 706.000000" preserveAspectRatio="xMidYMid meet">

<g transform="translate(0.000000,706.000000) scale(0.100000,-0.100000)" fill="#000000" stroke="none">
<path d="M3315 6873 c-569 -21 -1102 -191 -1570 -501 -337 -223 -648 -532
-859 -852 -83 -124 -160 -259 -154 -266 3 -3 39 11 79 31 72 35 205 81 302
104 101 24 311 43 402 36 298 -23 493 -81 753 -225 111 -62 302 -223 420 -353
384 -428 692 -1153 806 -1902 37 -245 40 -288 41 -565 0 -321 -13 -445 -75
-705 -48 -202 -150 -447 -245 -588 -19 -28 -35 -56 -35 -60 0 -17 272 140 460
265 481 322 948 760 1281 1203 440 585 733 1262 843 1950 8 50 20 126 28 170
21 127 18 585 -6 700 -38 188 -85 333 -151 465 -91 181 -173 293 -328 444
-322 314 -795 524 -1372 610 -181 27 -466 45 -620 39z"></path>
<path d="M6605 4738 c-72 -364 -224 -848 -361 -1146 -19 -41 -34 -76 -34 -79
0 -12 -173 -349 -229 -446 -523 -906 -1259 -1616 -2251 -2169 -330 -185 -845
-410 -1184 -518 -48 -16 -40 -22 82 -57 625 -179 1260 -181 1877 -6 268 76
594 221 830 368 791 495 1338 1278 1519 2175 35 173 45 255 61 478 27 387 -28
784 -166 1196 -44 131 -109 296 -118 296 -4 0 -15 -42 -26 -92z"></path>
<path d="M725 4695 c-80 -22 -189 -83 -254 -141 -154 -140 -240 -331 -286
-635 -18 -120 -20 -450 -4 -579 48 -388 101 -639 191 -905 112 -328 336 -712
610 -1043 107 -129 350 -370 468 -464 190 -151 303 -216 417 -242 90 -20 142
-20 234 -1 288 61 463 290 546 716 23 119 26 592 5 729 -36 225 -42 258 -81
415 -114 461 -317 927 -564 1295 -125 186 -219 302 -362 446 -192 193 -341
300 -509 365 -146 57 -301 74 -411 44z"></path>
</g>
</svg><style>@media (prefers-color-scheme: light) { :root { filter: contrast(1) brightness(0.7); } }
@media (prefers-color-scheme: dark) { :root { filter: invert(100%); } }
</style></svg>